<mxfile host="app.diagrams.net" modified="2023-02-08T11:37:41.664Z" agent="5.0 (Windows)" etag="RLxUDPnF6R7raILL2qCQ" version="20.8.18" type="github">
  <diagram name="Page-1" id="3Lloc9Alhh45rRG8b9GE">
    <mxGraphModel dx="1900" dy="511" grid="1" gridSize="10" guides="1" tooltips="1" connect="1" arrows="1" fold="1" page="1" pageScale="1" pageWidth="850" pageHeight="1100" math="0" shadow="0">
      <root>
        <mxCell id="0" />
        <mxCell id="1" parent="0" />
        <mxCell id="bb3SmqNtpPsJtVAqaQK4-1" value="Test Artifacts created by some automated tools" style="rounded=0;whiteSpace=wrap;html=1;" parent="1" vertex="1">
          <mxGeometry x="150" y="90" width="120" height="60" as="geometry" />
        </mxCell>
        <mxCell id="bb3SmqNtpPsJtVAqaQK4-3" value="Test Artifacts created manually" style="rounded=0;whiteSpace=wrap;html=1;" parent="1" vertex="1">
          <mxGeometry x="420" y="90" width="120" height="60" as="geometry" />
        </mxCell>
        <mxCell id="bb3SmqNtpPsJtVAqaQK4-4" value="Repo in Jfrog Artifactory - For example Repo - test-artifacts-conan-local" style="rounded=0;whiteSpace=wrap;html=1;" parent="1" vertex="1">
          <mxGeometry x="250" y="210" width="205" height="60" as="geometry" />
        </mxCell>
        <mxCell id="bb3SmqNtpPsJtVAqaQK4-5" value="" style="endArrow=classic;html=1;rounded=0;exitX=0.5;exitY=1;exitDx=0;exitDy=0;" parent="1" source="bb3SmqNtpPsJtVAqaQK4-3" edge="1">
          <mxGeometry width="50" height="50" relative="1" as="geometry">
            <mxPoint x="400" y="290" as="sourcePoint" />
            <mxPoint x="370" y="210" as="targetPoint" />
          </mxGeometry>
        </mxCell>
        <mxCell id="bb3SmqNtpPsJtVAqaQK4-6" value="" style="endArrow=classic;html=1;rounded=0;entryX=0.5;entryY=0;entryDx=0;entryDy=0;exitX=0.5;exitY=1;exitDx=0;exitDy=0;" parent="1" source="bb3SmqNtpPsJtVAqaQK4-1" target="bb3SmqNtpPsJtVAqaQK4-4" edge="1">
          <mxGeometry width="50" height="50" relative="1" as="geometry">
            <mxPoint x="400" y="290" as="sourcePoint" />
            <mxPoint x="450" y="240" as="targetPoint" />
          </mxGeometry>
        </mxCell>
        <mxCell id="bb3SmqNtpPsJtVAqaQK4-9" value="" style="endArrow=classic;html=1;rounded=0;exitX=0.5;exitY=1;exitDx=0;exitDy=0;" parent="1" source="bb3SmqNtpPsJtVAqaQK4-4" edge="1">
          <mxGeometry width="50" height="50" relative="1" as="geometry">
            <mxPoint x="400" y="290" as="sourcePoint" />
            <mxPoint x="353" y="330" as="targetPoint" />
          </mxGeometry>
        </mxCell>
        <mxCell id="bb3SmqNtpPsJtVAqaQK4-10" value="Link will be stored in ALM / JIRA" style="rounded=0;whiteSpace=wrap;html=1;" parent="1" vertex="1">
          <mxGeometry x="292.5" y="330" width="120" height="60" as="geometry" />
        </mxCell>
        <mxCell id="bb3SmqNtpPsJtVAqaQK4-12" value="We need bring up method or naming for storing the test artifacts " style="text;html=1;strokeColor=none;fillColor=none;align=center;verticalAlign=middle;whiteSpace=wrap;rounded=0;" parent="1" vertex="1">
          <mxGeometry x="455" y="225" width="210" height="30" as="geometry" />
        </mxCell>
        <mxCell id="bb3SmqNtpPsJtVAqaQK4-14" value="" style="shape=flexArrow;endArrow=classic;html=1;rounded=0;entryX=1;entryY=0.5;entryDx=0;entryDy=0;" parent="1" target="bb3SmqNtpPsJtVAqaQK4-3" edge="1">
          <mxGeometry width="50" height="50" relative="1" as="geometry">
            <mxPoint x="640" y="120" as="sourcePoint" />
            <mxPoint x="680" y="119.5" as="targetPoint" />
          </mxGeometry>
        </mxCell>
        <mxCell id="bb3SmqNtpPsJtVAqaQK4-15" value="" style="shape=flexArrow;endArrow=classic;html=1;rounded=0;" parent="1" edge="1">
          <mxGeometry width="50" height="50" relative="1" as="geometry">
            <mxPoint x="60" y="119.5" as="sourcePoint" />
            <mxPoint x="150" y="119.5" as="targetPoint" />
          </mxGeometry>
        </mxCell>
        <mxCell id="bb3SmqNtpPsJtVAqaQK4-21" style="edgeStyle=orthogonalEdgeStyle;rounded=0;orthogonalLoop=1;jettySize=auto;html=1;exitX=0.5;exitY=1;exitDx=0;exitDy=0;entryX=0;entryY=0.5;entryDx=0;entryDy=0;" parent="1" source="bb3SmqNtpPsJtVAqaQK4-17" target="bb3SmqNtpPsJtVAqaQK4-10" edge="1">
          <mxGeometry relative="1" as="geometry" />
        </mxCell>
        <mxCell id="bb3SmqNtpPsJtVAqaQK4-17" value="Jenkins Job from CX" style="rounded=0;whiteSpace=wrap;html=1;" parent="1" vertex="1">
          <mxGeometry x="-60" y="90" width="120" height="60" as="geometry" />
        </mxCell>
        <mxCell id="bb3SmqNtpPsJtVAqaQK4-20" style="edgeStyle=orthogonalEdgeStyle;rounded=0;orthogonalLoop=1;jettySize=auto;html=1;entryX=1;entryY=0.75;entryDx=0;entryDy=0;" parent="1" source="bb3SmqNtpPsJtVAqaQK4-18" target="bb3SmqNtpPsJtVAqaQK4-10" edge="1">
          <mxGeometry relative="1" as="geometry">
            <Array as="points">
              <mxPoint x="740" y="375" />
            </Array>
          </mxGeometry>
        </mxCell>
        <mxCell id="bb3SmqNtpPsJtVAqaQK4-18" value="User uploads files in Jenkins UI upload button and click Build and Jenkins Job gets triggered" style="rounded=0;whiteSpace=wrap;html=1;" parent="1" vertex="1">
          <mxGeometry x="640" y="80" width="160" height="70" as="geometry" />
        </mxCell>
        <mxCell id="bb3SmqNtpPsJtVAqaQK4-22" value="Also stores link in JIRA" style="text;html=1;strokeColor=none;fillColor=none;align=center;verticalAlign=middle;whiteSpace=wrap;rounded=0;" parent="1" vertex="1">
          <mxGeometry x="605" y="340" width="105" height="30" as="geometry" />
        </mxCell>
        <mxCell id="bb3SmqNtpPsJtVAqaQK4-23" value="Also stores link in JIRA" style="text;html=1;strokeColor=none;fillColor=none;align=center;verticalAlign=middle;whiteSpace=wrap;rounded=0;" parent="1" vertex="1">
          <mxGeometry x="130" y="330" width="105" height="30" as="geometry" />
        </mxCell>
      </root>
    </mxGraphModel>
  </diagram>
</mxfile>
